<svg xmlns="http://www.w3.org/2000/svg" width="192.251" height="31.996" viewBox="0 0 192.251 31.996">
  <g id="Raggruppa_93" data-name="Raggruppa 93" transform="translate(-31.952 239.399)">
    <path id="Tracciato_1" data-name="Tracciato 1" d="M31.952-233.314v-4.508h5.966v11.556Zm0,25.955v-21.885l5.966,5.3v16.589ZM43.8-237.822a11,11,0,0,1,3.422.569L40.2-229.112v-8.71h3.6Zm6.1,1.97a10.305,10.305,0,0,1,3.466,4.377L40.2-222.109v-4.946Zm-6.1,18.82a10.416,10.416,0,0,0,10.4-10.417,11.489,11.489,0,0,0-.088-1.225L40.2-220.4l.044,3.369H43.8Z" transform="translate(0 -0.745)" fill="#fff"/>
    <path id="Tracciato_2" data-name="Tracciato 2" d="M94.69-203.8a5.086,5.086,0,0,0,.965,3.546h-6.23l-.132-1.707a7.389,7.389,0,0,1-2.018,1.225,10.26,10.26,0,0,1-4.431,1.007A9.837,9.837,0,0,1,77.931-201l2.764-4.727c.439.832,1.448,1.488,3.334,1.488,2.9,0,4.606-1.488,5.089-2.495a4.047,4.047,0,0,0,.307-2.014v-2.407a13.679,13.679,0,0,1-4.168,1.225,10.16,10.16,0,0,0-3.554.919,2.3,2.3,0,0,0-.745.7v-.044L76.045-202.8c-.088-.131-.175-.219-.219-.306a6.181,6.181,0,0,1-.966-3.5,6.371,6.371,0,0,1,2.983-5.471,13.416,13.416,0,0,1,5.528-1.882,41.362,41.362,0,0,0,6.054-1.489,4.19,4.19,0,0,0-.307-1.794c-.439-.832-1.536-1.488-3.466-1.488-2.018,0-3.291.612-3.861,1.356a2.849,2.849,0,0,0-.57,1.925l-5.353-.306a6.585,6.585,0,0,1,2.369-5.034c1.36-1.138,3.422-2.013,7.239-2.013,3.6,0,5.7.744,7.063,1.707a5.1,5.1,0,0,1,1.579,1.751,9.059,9.059,0,0,1,.57,3.895Z" transform="translate(-20.226 -7.845)" fill="#fff"/>
    <path id="Tracciato_3" data-name="Tracciato 3" d="M128.734-222.468h.438v5.384c-.833,0-3.509,0-5.264,1.794l-.044.044-6.756,7.179v-13.919H122.2v3.108a6.788,6.788,0,0,1,1.316-1.8C125.268-222.38,128.12-222.468,128.734-222.468ZM117.108-204.3v4.2H122.2v-9.367c0-.481,0-.962.044-1.444Z" transform="translate(-40.142 -8.002)" fill="#fff"/>
    <path id="Tracciato_4" data-name="Tracciato 4" d="M148.329-206.085l-6.537-.963a14.534,14.534,0,0,1-.614-4.07,11.89,11.89,0,0,1,2.369-7.353,10.74,10.74,0,0,1,8.73-4.246,10.747,10.747,0,0,1,4.08.788,10.263,10.263,0,0,1,5.352,5.427l-4.694,2.188a5.307,5.307,0,0,0-1.316-2.232,4.838,4.838,0,0,0-3.685-1.488,4.661,4.661,0,0,0-3.773,1.707,7.752,7.752,0,0,0-1.623,5.077,8.605,8.605,0,0,0,.307,2.407A6.588,6.588,0,0,0,148.329-206.085Zm9.125-2.626c-.394.964-1.535,4.289-5.308,4.289a4.865,4.865,0,0,1-.833-.087l-8.336.044a9.754,9.754,0,0,0,4.475,3.939,11.694,11.694,0,0,0,4.562,1.007,10.6,10.6,0,0,0,8.511-4.158,11.119,11.119,0,0,0,1.4-2.67Z" transform="translate(-51.489 -7.884)" fill="#fff"/>
    <path id="Tracciato_5" data-name="Tracciato 5" d="M189.47-205.3l6.1,5.427a12.017,12.017,0,0,1-2.939.35,11.65,11.65,0,0,1-4.913-1.007c-2.281-1.007-6.449-4.07-6.449-10.68a13.177,13.177,0,0,1,.965-4.9,10.678,10.678,0,0,1,10.222-6.609,12.275,12.275,0,0,1,2.457.263l-5.835,5.515v.044a6.7,6.7,0,0,0-2.325,5.559,8.6,8.6,0,0,0,.439,2.977A6.569,6.569,0,0,0,189.47-205.3Zm8.16-16.238c2.413,1.094,6.142,4.07,6.142,10.329a13.358,13.358,0,0,1-.877,4.9,10.847,10.847,0,0,1-4.65,5.384l-5.264-3.414c3.773-.218,5.44-3.588,5.308-6.959-.044-3.327-1.974-6.565-5.659-6.7Z" transform="translate(-70.386 -7.884)" fill="#fff"/>
    <path id="Tracciato_6" data-name="Tracciato 6" d="M245.737-222.241l-5.791-6.04V-239.4h5.791Zm0,14.138v-9.717l-5.791-8.185v17.9Z" transform="translate(-98.047 0)" fill="#fff"/>
    <path id="Tracciato_7" data-name="Tracciato 7" d="M267.052-228.869v3.721h-4.694v4.157l-5.264-4.157h-3.2v-3.721h3.2v-7.791h5.264v7.791Zm-4.168,16.895c-.658-.7-.526-2.363-.526-3.239v-2.32l-5.264-5.865v9.411a18.667,18.667,0,0,0,.263,4.158,3.113,3.113,0,0,0,.658,1.269c.878,1.05,2.369,1.75,5.264,1.75a24.241,24.241,0,0,0,3.773-.35v-4.421a8.5,8.5,0,0,1-2.149.263A2.848,2.848,0,0,1,262.884-211.974Z" transform="translate(-104.621 -1.294)" fill="#fff"/>
    <path id="Tracciato_8" data-name="Tracciato 8" d="M301.606-203.8a5.088,5.088,0,0,0,.965,3.546h-6.229l-.132-1.707a7.389,7.389,0,0,1-2.018,1.225,10.262,10.262,0,0,1-4.431,1.007A9.839,9.839,0,0,1,284.847-201l2.764-4.727c.439.832,1.448,1.488,3.334,1.488,2.9,0,4.606-1.488,5.089-2.495a4.047,4.047,0,0,0,.307-2.014v-2.407a13.683,13.683,0,0,1-4.168,1.225,10.16,10.16,0,0,0-3.553.919,2.3,2.3,0,0,0-.746.7v-.044l-4.913,5.559c-.088-.131-.176-.219-.219-.306a6.186,6.186,0,0,1-.965-3.5,6.371,6.371,0,0,1,2.983-5.471,13.416,13.416,0,0,1,5.528-1.882,41.376,41.376,0,0,0,6.055-1.489,4.19,4.19,0,0,0-.307-1.794c-.439-.832-1.536-1.488-3.466-1.488-2.018,0-3.29.612-3.86,1.356a2.847,2.847,0,0,0-.57,1.925l-5.352-.306a6.585,6.585,0,0,1,2.369-5.034c1.36-1.138,3.422-2.013,7.238-2.013,3.6,0,5.7.744,7.063,1.707a5.1,5.1,0,0,1,1.579,1.751,9.058,9.058,0,0,1,.57,3.895Z" transform="translate(-117.765 -7.845)" fill="#fff"/>
    <path id="Tracciato_9" data-name="Tracciato 9" d="M331.534-238.652v15.625l-5.352-6.74v-8.885Zm0,30.9v-13.087l-5.352-4.859v17.945Z" transform="translate(-138.698 -0.353)" fill="#fff"/>
    <path id="Tracciato_10" data-name="Tracciato 10" d="M342.2-232.775v-5.3h5.22v5.3Zm0,19.872v-16.457h5.22v11.511Zm0,2.013v3.414h5.22v-6.653Z" transform="translate(-146.249 -0.628)" fill="#fff"/>
    <path id="Tracciato_11" data-name="Tracciato 11" d="M376.137-203.8a5.086,5.086,0,0,0,.965,3.546h-6.23l-.132-1.707a7.374,7.374,0,0,1-2.018,1.225,10.258,10.258,0,0,1-4.43,1.007A9.837,9.837,0,0,1,359.379-201l2.764-4.727c.439.832,1.448,1.488,3.334,1.488,2.9,0,4.606-1.488,5.089-2.495a4.048,4.048,0,0,0,.307-2.014v-2.407a13.679,13.679,0,0,1-4.168,1.225,10.163,10.163,0,0,0-3.554.919,2.3,2.3,0,0,0-.745.7v-.044l-4.914,5.559c-.088-.131-.176-.219-.219-.306a6.186,6.186,0,0,1-.965-3.5,6.371,6.371,0,0,1,2.983-5.471,13.416,13.416,0,0,1,5.528-1.882,41.346,41.346,0,0,0,6.054-1.489,4.19,4.19,0,0,0-.307-1.794c-.439-.832-1.535-1.488-3.466-1.488-2.018,0-3.29.612-3.861,1.356a2.849,2.849,0,0,0-.57,1.925l-5.353-.306a6.586,6.586,0,0,1,2.369-5.034c1.36-1.138,3.422-2.013,7.239-2.013,3.6,0,5.7.744,7.063,1.707a5.1,5.1,0,0,1,1.579,1.751,9.067,9.067,0,0,1,.57,3.895Z" transform="translate(-152.899 -7.845)" fill="#fff"/>
  </g>
</svg>
